<svg width="1920" height="1080" xmlns="http://www.w3.org/2000/svg">
  <defs>
    <linearGradient id="grad" x1="0%" y1="0%" x2="100%" y2="100%">
      <stop offset="0%" style="stop-color:#000000;stop-opacity:1" />
      <stop offset="100%" style="stop-color:#1a1a1a;stop-opacity:1" />
    </linearGradient>
    <filter id="noise" x="0%" y="0%" width="100%" height="100%">
      <feTurbulence type="fractalNoise" baseFrequency="0.01" numOctaves="3" result="noise" />
      <feDisplacementMap in="SourceGraphic" in2="noise" scale="10" xChannelSelector="R" yChannelSelector="G" />
    </filter>
    <radialGradient id="spotlight" cx="50%" cy="50%" r="70%" fx="50%" fy="50%">
      <stop offset="0%" style="stop-color:#d4af37;stop-opacity:0.3" />
      <stop offset="100%" style="stop-color:#000000;stop-opacity:0" />
    </radialGradient>
  </defs>
  
  <!-- Background with gradient -->
  <rect width="1920" height="1080" fill="url(#grad)" />
  
  <!-- Abstract camera lens elements -->
  <circle cx="960" cy="540" r="400" fill="none" stroke="#333" stroke-width="2" opacity="0.5" />
  <circle cx="960" cy="540" r="300" fill="none" stroke="#444" stroke-width="3" opacity="0.6" />
  <circle cx="960" cy="540" r="200" fill="none" stroke="#555" stroke-width="4" opacity="0.7" />
  <circle cx="960" cy="540" r="100" fill="none" stroke="#666" stroke-width="5" opacity="0.8" />
  
  <!-- Spotlight effect -->
  <circle cx="960" cy="540" r="600" fill="url(#spotlight)" opacity="0.7" />
  
  <!-- Abstract camera aperture -->
  <g transform="translate(960, 540)" opacity="0.8">
    <path d="M0,-180 L156,-90 L156,90 L0,180 L-156,90 L-156,-90 Z" fill="none" stroke="#d4af37" stroke-width="2" />
  </g>
  
  <!-- Decorative elements -->
  <g opacity="0.4">
    <line x1="0" y1="0" x2="1920" y2="1080" stroke="#d4af37" stroke-width="1" />
    <line x1="1920" y1="0" x2="0" y2="1080" stroke="#d4af37" stroke-width="1" />
  </g>
  
  <!-- Small decorative circles representing bokeh effect -->
  <g opacity="0.6">
    <circle cx="300" cy="200" r="20" fill="#d4af37" opacity="0.2" />
    <circle cx="1600" cy="300" r="15" fill="#d4af37" opacity="0.15" />
    <circle cx="400" cy="800" r="25" fill="#d4af37" opacity="0.1" />
    <circle cx="1500" cy="700" r="30" fill="#d4af37" opacity="0.2" />
    <circle cx="1200" cy="200" r="10" fill="#d4af37" opacity="0.25" />
    <circle cx="700" cy="900" r="18" fill="#d4af37" opacity="0.15" />
  </g>
</svg>